<?xml version="1.0" encoding="UTF-8" standalone="no"?>
<svg
   xmlns:dc="http://purl.org/dc/elements/1.1/"
   xmlns:cc="http://creativecommons.org/ns#"
   xmlns:rdf="http://www.w3.org/1999/02/22-rdf-syntax-ns#"
   xmlns:svg="http://www.w3.org/2000/svg"
   xmlns="http://www.w3.org/2000/svg"
   xmlns:sodipodi="http://sodipodi.sourceforge.net/DTD/sodipodi-0.dtd"
   xmlns:inkscape="http://www.inkscape.org/namespaces/inkscape"
   width="246.230197173mm"
   height="246.230197173mm"
   viewBox="0 0 246.230197173 246.230197173"
   version="1.1"
   id="svg2"
   inkscape:version="0.91 r13725"
   sodipodi:docname="drawing.svg">
  <metadata
     id="metadata25">
    <rdf:RDF>
      <cc:Work
         rdf:about="">
        <dc:format>image/svg+xml</dc:format>
        <dc:type
           rdf:resource="http://purl.org/dc/dcmitype/StillImage" />
        <dc:title></dc:title>
      </cc:Work>
    </rdf:RDF>
  </metadata>
  <defs
     id="defs23" />
  <sodipodi:namedview
     pagecolor="#ffffff"
     bordercolor="#666666"
     borderopacity="1"
     objecttolerance="10"
     gridtolerance="10"
     guidetolerance="10"
     inkscape:pageopacity="0"
     inkscape:pageshadow="2"
     inkscape:window-width="1754"
     inkscape:window-height="1041"
     id="namedview21"
     showgrid="false"
     inkscape:zoom="0.27049666"
     inkscape:cx="443.6284"
     inkscape:cy="436.2346"
     inkscape:window-x="0"
     inkscape:window-y="0"
     inkscape:window-maximized="0"
     inkscape:current-layer="svg2"
     inkscape:document-units="mm" />
  <path
     inkscape:connector-curvature="0"
     style="fill:#cccccc;fill-rule:evenodd;stroke:#191919;stroke-width:0.34999999;stroke-miterlimit:4;stroke-dasharray:none"
     d="m 2.41402,155.6151 0,0 a 41.486766,41.486766 0 0 0 0,-65 l 0,0 a 41.486766,41.486766 0 0 1 0,65 z"
     id="Pad_f0000" />
  <path
     inkscape:connector-curvature="0"
     style="fill:#cccccc;fill-rule:evenodd;stroke:#191919;stroke-width:0.34999999;stroke-miterlimit:4;stroke-dasharray:none"
     d="M 2.41402,90.6151 A 125,125 0 0 1 90.6151,2.41402 l 0,0 A 125,125 0 0 0 2.41402,90.6151 l 0,0 z"
     id="Pad_f0001" />
  <path
     inkscape:connector-curvature="0"
     style="fill:#cccccc;fill-rule:evenodd;stroke:#191919;stroke-width:0.34999999;stroke-miterlimit:4;stroke-dasharray:none"
     d="m 90.6151,2.41402 0,0 a 41.486766,41.486766 0 0 0 65,0 l 0,0 a 41.486766,41.486766 0 0 1 -65,0 z"
     id="Pad_f0002" />
  <path
     inkscape:connector-curvature="0"
     style="fill:#cccccc;fill-rule:evenodd;stroke:#191919;stroke-width:0.34999999;stroke-miterlimit:4;stroke-dasharray:none"
     d="m 155.6151,2.41402 a 125,125 0 0 1 88.20108,88.20108 l 0,0 A 125,125 0 0 0 155.6151,2.41402 l 0,0 z"
     id="Pad_f0003" />
  <path
     inkscape:connector-curvature="0"
     style="fill:#cccccc;fill-rule:evenodd;stroke:#191919;stroke-width:0.34999999;stroke-miterlimit:4;stroke-dasharray:none"
     d="m 243.81618,90.6151 0,0 a 41.486766,41.486766 0 0 0 0,65 l 0,0 a 41.486766,41.486766 0 0 1 0,-65 z"
     id="Pad_f0004" />
  <path
     inkscape:connector-curvature="0"
     style="fill:#cccccc;fill-rule:evenodd;stroke:#191919;stroke-width:0.34999999;stroke-miterlimit:4;stroke-dasharray:none"
     d="m 243.81618,155.6151 a 125,125 0 0 1 -88.20108,88.20108 l 0,0 a 125,125 0 0 0 88.20108,-88.20108 l 0,0 z"
     id="Pad_f0005" />
  <path
     inkscape:connector-curvature="0"
     style="fill:#cccccc;fill-rule:evenodd;stroke:#191919;stroke-width:0.34999999;stroke-miterlimit:4;stroke-dasharray:none"
     d="m 155.6151,243.81618 0,0 a 41.486766,41.486766 0 0 0 -65,0 l 0,0 a 41.486766,41.486766 0 0 1 65,0 z"
     id="Pad_f0006" />
  <path
     inkscape:connector-curvature="0"
     style="fill:#cccccc;fill-rule:evenodd;stroke:#191919;stroke-width:0.34999999;stroke-miterlimit:4;stroke-dasharray:none"
     d="M 90.6151,243.81618 A 125,125 0 0 1 2.41402,155.6151 l 0,0 a 125,125 0 0 0 88.20108,88.20108 l 0,0 z"
     id="Pad_f0007" />
  <circle
     id="circle17"
     style="fill:none;stroke:#191919;stroke-width:0.34999999;stroke-miterlimit:4;stroke-dasharray:none"
     r="27.5"
     cy="-123.1151"
     cx="123.1151"
     transform="scale(1,-1)" />
</svg>
